<?xml version="1.0" encoding="utf-8"?>
<!-- Generator: Adobe Illustrator 21.1.0, SVG Export Plug-In . SVG Version: 6.00 Build 0)  -->
<svg version="1.1" id="Icons" xmlns="http://www.w3.org/2000/svg" xmlns:xlink="http://www.w3.org/1999/xlink" x="0px" y="0px"
	 viewBox="0 0 48 48" style="enable-background:new 0 0 48 48;" xml:space="preserve">
<style type="text/css">
	.st0{opacity:0.15;fill:#45413C;}
	.st1{fill:#BF8256;}
	.st2{fill:#915E3A;}
	.st3{fill:none;stroke:#45413C;stroke-linecap:round;stroke-linejoin:round;stroke-miterlimit:10;}
	.st4{fill:#DEA47A;}
	.st5{fill:#DAEDF7;stroke:#45413C;stroke-linecap:round;stroke-linejoin:round;stroke-miterlimit:10;}
	.st6{fill:#BF8256;stroke:#45413C;stroke-linecap:round;stroke-linejoin:round;stroke-miterlimit:10;}
	.st7{fill:#FF6242;}
	.st8{fill:#FF866E;}
	.st9{fill:#DEBB7E;}
	.st10{fill:#B89558;}
	.st11{fill:#656769;}
	.st12{fill:#525252;}
	.st13{fill:#E04122;}
	.st14{fill:#FFFFFF;}
	.st15{fill:#F0F0F0;}
	.st16{fill:#00B8F0;}
	.st17{fill:#4ACFFF;}
	.st18{fill:#C0DCEB;}
	.st19{fill:#8CA4B8;}
	.st20{fill:#FF6242;stroke:#45413C;stroke-linecap:round;stroke-linejoin:round;stroke-miterlimit:10;}
	.st21{fill:#87898C;}
	.st22{fill:#E0E0E0;}
	.st23{fill:#E8F4FA;stroke:#45413C;stroke-linecap:round;stroke-linejoin:round;stroke-miterlimit:10;}
	.st24{fill:#656769;stroke:#45413C;stroke-linecap:round;stroke-linejoin:round;stroke-miterlimit:10;}
	.st25{fill:#DAEDF7;}
	.st26{fill:#E8F4FA;}
	.st27{fill:#ADC4D9;stroke:#45413C;stroke-linecap:round;stroke-linejoin:round;stroke-miterlimit:10;}
	.st28{fill:#87898C;stroke:#45413C;stroke-linecap:round;stroke-linejoin:round;stroke-miterlimit:10;}
	.st29{fill:#BDBEC0;}
	.st30{fill:#FFFFFF;stroke:#45413C;stroke-linecap:round;stroke-linejoin:round;stroke-miterlimit:10;}
	.st31{fill:#ADC4D9;}
	.st32{fill:none;stroke:#00AED9;stroke-linecap:round;stroke-linejoin:round;stroke-miterlimit:10;}
	.st33{fill:#FFFACF;}
	.st34{fill:#FFE500;}
	.st35{fill:#915E3A;stroke:#45413C;stroke-linecap:round;stroke-linejoin:round;stroke-miterlimit:10;}
	.st36{fill:#FFAA54;}
	.st37{fill:#627B8C;stroke:#45413C;stroke-linecap:round;stroke-linejoin:round;stroke-miterlimit:10;}
	.st38{fill:#FFFEF2;}
	.st39{fill:#FFFCE5;stroke:#45413C;stroke-linecap:round;stroke-linejoin:round;stroke-miterlimit:10;}
	.st40{fill:#00F5BC;}
	.st41{fill:#FFFCE5;}
	.st42{fill:#FFFEF2;stroke:#45413C;stroke-linecap:round;stroke-linejoin:round;stroke-miterlimit:10;}
	.st43{fill:#8CFFE4;}
	.st44{fill:#FFF5E3;}
	.st45{fill:#F7E5C6;}
	.st46{fill:#F7E5C6;stroke:#45413C;stroke-linecap:round;stroke-linejoin:round;stroke-miterlimit:10;}
	.st47{fill:#F0D5A8;}
	.st48{fill:#FF87AF;stroke:#45413C;stroke-linecap:round;stroke-linejoin:round;stroke-miterlimit:10;}
	.st49{fill:#45413C;}
	.st50{fill:#BDBEC0;stroke:#45413C;stroke-linecap:round;stroke-linejoin:round;stroke-miterlimit:10;}
	.st51{fill:#E0E0E0;stroke:#45413C;stroke-linecap:round;stroke-linejoin:round;stroke-miterlimit:10;}
	.st52{fill:#DEBB7E;stroke:#45413C;stroke-linecap:round;stroke-linejoin:round;stroke-miterlimit:10;}
	.st53{fill:#F5EBFF;stroke:#45413C;stroke-linecap:round;stroke-linejoin:round;stroke-miterlimit:10;}
	.st54{fill:#BF8DF2;stroke:#45413C;stroke-linecap:round;stroke-linejoin:round;stroke-miterlimit:10;}
	.st55{fill:#E4FFD1;stroke:#45413C;stroke-linecap:round;stroke-linejoin:round;stroke-miterlimit:10;}
	.st56{fill:#F0FFE5;}
	.st57{fill:#C8FFA1;stroke:#45413C;stroke-linecap:round;stroke-linejoin:round;stroke-miterlimit:10;}
	.st58{fill:#6DD627;stroke:#45413C;stroke-linecap:round;stroke-linejoin:round;stroke-miterlimit:10;}
	.st59{fill:#E5FEFF;}
	.st60{fill:#FFAA54;stroke:#45413C;stroke-linecap:round;stroke-linejoin:round;stroke-miterlimit:10;}
	.st61{fill:#9CEB60;stroke:#45413C;stroke-linecap:round;stroke-linejoin:round;stroke-miterlimit:10;}
	.st62{fill:#FFF48C;}
	.st63{fill:#00B8F0;stroke:#45413C;stroke-linecap:round;stroke-linejoin:round;stroke-miterlimit:10;}
	.st64{fill:none;stroke:#4F4B45;stroke-linejoin:round;stroke-miterlimit:10;}
	.st65{fill:#FFFFFF;stroke:#4F4B45;stroke-linejoin:round;stroke-miterlimit:10;}
	.st66{fill:#FFF5E3;stroke:#4F4B45;stroke-linejoin:round;stroke-miterlimit:10;}
	.st67{fill:#F7E5C6;stroke:#4F4B45;stroke-linejoin:round;stroke-miterlimit:10;}
	.st68{fill:#6DD627;}
	.st69{fill:#EBCB00;}
	.st70{fill:#46B000;}
	.st71{fill:none;stroke:#E0E0E0;stroke-linecap:round;stroke-linejoin:round;stroke-miterlimit:10;}
	.st72{fill:#9CEB60;}
	.st73{fill:#FFCC99;}
	.st74{fill:#BF8DF2;}
	.st75{fill:#9F5AE5;}
	.st76{fill:#DABFF5;}
	.st77{fill:#F0F0F0;stroke:#45413C;stroke-linecap:round;stroke-linejoin:round;stroke-miterlimit:10;}
	.st78{fill:#E5F8FF;}
	.st79{fill:#B8ECFF;}
	.st80{fill:#D9FDFF;}
	.st81{fill:#C0DCEB;stroke:#45413C;stroke-linecap:round;stroke-linejoin:round;stroke-miterlimit:10;}
	.st82{fill:#46B000;stroke:#45413C;stroke-linecap:round;stroke-linejoin:round;stroke-miterlimit:10;}
	.st83{fill:none;stroke:#FFFFFF;stroke-miterlimit:10;}
	.st84{fill:none;stroke:#FFFFFF;stroke-linecap:round;stroke-linejoin:round;stroke-miterlimit:10;}
	.st85{fill:#FFE500;stroke:#45413C;stroke-linecap:round;stroke-linejoin:round;stroke-miterlimit:10;}
	.st86{fill:#80DDFF;stroke:#45413C;stroke-linecap:round;stroke-linejoin:round;stroke-miterlimit:10;}
	.st87{fill:#FFFFFF;stroke:#45413C;stroke-linejoin:round;stroke-miterlimit:10;}
	.st88{fill:#009FD9;stroke:#45413C;stroke-linecap:round;stroke-linejoin:round;stroke-miterlimit:10;}
	.st89{fill:#E04122;stroke:#45413C;stroke-linecap:round;stroke-linejoin:round;stroke-miterlimit:10;}
	.st90{fill:#009FD9;}
	.st91{fill:#FFFFFF;stroke:#45413C;stroke-miterlimit:10;}
	.st92{fill:#009FD9;stroke:#45413C;stroke-miterlimit:10;}
	.st93{fill:#FF8A14;stroke:#45413C;stroke-linecap:round;stroke-linejoin:round;stroke-miterlimit:10;}
	.st94{fill:none;stroke:#009FD9;stroke-linecap:round;stroke-linejoin:round;stroke-miterlimit:10;}
	.st95{fill:#525252;stroke:#45413C;stroke-linecap:round;stroke-linejoin:round;stroke-miterlimit:10;}
	.st96{fill:none;stroke:#46B000;stroke-linecap:round;stroke-linejoin:round;stroke-miterlimit:10;}
	.st97{fill:none;stroke:#E04122;stroke-linecap:round;stroke-linejoin:round;stroke-miterlimit:10;}
	.st98{fill:#6DD627;stroke:#45413C;stroke-miterlimit:10;}
	.st99{fill:none;stroke:#45413C;stroke-linejoin:round;stroke-miterlimit:10;}
	.st100{fill:#46B000;stroke:#45413C;stroke-miterlimit:10;}
	.st101{fill:#00DFEB;}
	.st102{fill:#00AD85;}
	.st103{fill:#E04122;stroke:#45413C;stroke-miterlimit:10;}
</style>
<g id="XMLID_16987_">
	<ellipse id="XMLID_17001_" class="st0" cx="24" cy="45.5" rx="14" ry="1.5"/>
	<path id="XMLID_17000_" class="st29" d="M16,3L9.3,15.6c-0.2,0.4-0.7,0.6-1.2,0.5l-1-0.3c-0.6-0.2-0.9-0.9-0.6-1.4l6.9-12.9
		c0.3-0.5,1-0.7,1.5-0.3l0.8,0.6C16.2,2,16.3,2.6,16,3z"/>
	<path id="XMLID_16999_" class="st22" d="M15.8,1.7L15,1.1c-0.5-0.4-1.2-0.2-1.5,0.3l-1.3,2.4c0.2-0.5,0.9-0.5,1.4-0.2l0.8,0.6
		c0.3,0.2,0.5,0.6,0.4,1L16,3C16.3,2.6,16.2,2,15.8,1.7z"/>
	<path id="XMLID_16998_" class="st3" d="M16,3L9.3,15.6c-0.2,0.4-0.7,0.6-1.2,0.5l-1-0.3c-0.6-0.2-0.9-0.9-0.6-1.4l6.9-12.9
		c0.3-0.5,1-0.7,1.5-0.3l0.8,0.6C16.2,2,16.3,2.6,16,3z"/>
	<path id="XMLID_16997_" class="st21" d="M9.4,15.5l6.9,3.7c0.7,0.4,1.4,0.6,2.2,0.6l2.6,0.2l5.2-9.7l-1.7-2.1
		c-0.5-0.6-1.1-1.1-1.7-1.4L16,3.1L9.4,15.5z"/>
	<path id="XMLID_16996_" class="st29" d="M21.6,9.3c0.7,0.4,1.3,0.8,1.8,1.4l1.8,1.9l1.2-2.2l-1.7-2.1c-0.5-0.6-1.1-1.1-1.7-1.4
		L16,3.1L9.4,15.5l5.3-9.9L21.6,9.3z"/>
	<path id="XMLID_16995_" class="st3" d="M9.4,15.5l6.9,3.7c0.7,0.4,1.4,0.6,2.2,0.6l2.6,0.2l5.2-9.7l-1.7-2.1
		c-0.5-0.6-1.1-1.1-1.7-1.4L16,3.1L9.4,15.5z"/>
	<path id="XMLID_16994_" class="st29" d="M28,12.4l-4.2,7.9c-0.3,0.5-0.9,0.7-1.4,0.4l-1.3-0.7l5.2-9.7l1.3,0.7
		C28.1,11.3,28.3,11.9,28,12.4z"/>
	<path id="XMLID_16993_" class="st22" d="M27.6,11.1l-1.3-0.7l-0.8,1.5l1.4,0.7c0.5,0.2,0.6,0.8,0.4,1.3l0.8-1.5
		C28.3,11.9,28.1,11.3,27.6,11.1z"/>
	<path id="XMLID_16992_" class="st3" d="M28,12.4l-4.2,7.9c-0.3,0.5-0.9,0.7-1.4,0.4l-1.3-0.7l5.2-9.7l1.3,0.7
		C28.1,11.3,28.3,11.9,28,12.4z"/>
	<path id="XMLID_16991_" class="st21" d="M24,19.9c1.1-0.8,2.6-0.9,3.8-0.2l1.1,0.6l1.9-3.5l-1.1-0.6c-1.2-0.6-1.9-1.9-1.9-3.3
		L24,19.9z"/>
	<path id="XMLID_16990_" class="st29" d="M29.7,16.1c-1.2-0.6-1.9-1.9-1.9-3.3L26.6,15c0.1,1,1,2.1,2.2,2.8l1.1,0.6l0.9-1.6
		L29.7,16.1z"/>
	<path id="XMLID_16989_" class="st3" d="M24,19.9c1.1-0.8,2.6-0.9,3.8-0.2l1.1,0.6l1.9-3.5l-1.1-0.6c-1.2-0.6-1.9-1.9-1.9-3.3
		L24,19.9z"/>
	<path class="st11" d="M19.7,30.1c0.9-1.7,3-2.3,4.7-1.4l9.3,5c3.2,1.7,7.1,0.5,8.8-2.7c1.7-3.2,0.5-7.1-2.7-8.8l-9.3-5l-1.4,2.6
		l9.3,5c1.7,0.9,2.3,3,1.4,4.7c-0.9,1.7-3,2.3-4.7,1.4l-9.3-5c-3.2-1.7-7.1-0.5-8.8,2.7s-0.5,7.1,2.7,8.8L33.8,45
		c0.5,0.3,1.1,0.1,1.4-0.4l0.5-0.9c0.3-0.5,0.1-1.1-0.4-1.4l-14.1-7.5C19.4,33.9,18.8,31.8,19.7,30.1z"/>
	<g>
		<path class="st21" d="M35.2,42.4l-14.1-7.5c-1.5-0.8-2.2-2.5-1.7-4.1c-0.1,0.2-0.2,0.3-0.3,0.5c-0.9,1.7-0.3,3.8,1.4,4.7l14.1,7.5
			c0.4,0.2,0.6,0.7,0.5,1.2c0,0,0.1-0.1,0.1-0.1l0.5-0.9C35.9,43.2,35.7,42.6,35.2,42.4z"/>
		<path class="st21" d="M25.2,27.2l9.3,5c1.7,0.9,3.8,0.3,4.7-1.4c0.1-0.2,0.2-0.4,0.3-0.7c-1,1.3-2.9,1.7-4.4,0.9l-9.3-5
			c-3.2-1.7-7.1-0.5-8.8,2.7c-0.1,0.2-0.2,0.4-0.3,0.6C18.6,26.5,22.2,25.6,25.2,27.2z"/>
		<path class="st21" d="M39.8,22.1l-9.3-5l-0.6,1.2l9.3,5c3,1.6,4.2,5.1,3,8.2c0.1-0.2,0.2-0.3,0.3-0.5C44.2,27.8,43,23.8,39.8,22.1
			z"/>
	</g>
	<path class="st3" d="M19.7,30.1c0.9-1.7,3-2.3,4.7-1.4l9.3,5c3.2,1.7,7.1,0.5,8.8-2.7c1.7-3.2,0.5-7.1-2.7-8.8l-9.3-5l-1.4,2.6
		l9.3,5c1.7,0.9,2.3,3,1.4,4.7c-0.9,1.7-3,2.3-4.7,1.4l-9.3-5c-3.2-1.7-7.1-0.5-8.8,2.7s-0.5,7.1,2.7,8.8L33.8,45
		c0.5,0.3,1.1,0.1,1.4-0.4l0.5-0.9c0.3-0.5,0.1-1.1-0.4-1.4l-14.1-7.5C19.4,33.9,18.8,31.8,19.7,30.1z"/>
	<path class="st23" d="M2.7,6.8C2.2,6.5,1.6,6.7,1.3,7.2C1.1,7.7,1.2,8.3,1.7,8.6l6.2,3.3l0.9-1.8L2.7,6.8z"/>
	<path class="st23" d="M6,0.6C5.5,0.4,4.9,0.5,4.6,1C4.4,1.5,4.5,2.1,5,2.4l6.2,3.3l0.9-1.8L6,0.6z"/>
	<path class="st11" d="M19.2,8.8l-1.3-0.7c-0.5-0.3-1.1-0.1-1.4,0.4l-2.4,4.4c-0.3,0.5-0.1,1.1,0.4,1.4l1.3,0.7
		c1.7,0.9,3.8,0.3,4.7-1.4S20.9,9.7,19.2,8.8z"/>
	<path id="XMLID_16988_" class="st12" d="M19.2,8.8l-1.3-0.7c-0.5-0.3-1.1-0.1-1.4,0.4l-0.7,1.3c0.2-0.4,0.7-0.5,1-0.3l2.3,1.2
		c1.2,0.6,1.6,2,1.2,3.2c0.1-0.1,0.2-0.2,0.2-0.4C21.5,11.8,20.9,9.7,19.2,8.8z"/>
	<path class="st3" d="M19.2,8.8l-1.3-0.7c-0.5-0.3-1.1-0.1-1.4,0.4l-2.4,4.4c-0.3,0.5-0.1,1.1,0.4,1.4l1.3,0.7
		c1.7,0.9,3.8,0.3,4.7-1.4S20.9,9.7,19.2,8.8z"/>
</g>
</svg>
