<?xml version="1.0" encoding="utf-8"?>
<!-- Generator: Adobe Illustrator 21.1.0, SVG Export Plug-In . SVG Version: 6.00 Build 0)  -->
<svg version="1.1" id="Icons" xmlns="http://www.w3.org/2000/svg" xmlns:xlink="http://www.w3.org/1999/xlink" x="0px" y="0px"
	 viewBox="0 0 48 48" style="enable-background:new 0 0 48 48;" xml:space="preserve">
<style type="text/css">
	.st0{opacity:0.15;fill:#45413C;}
	.st1{fill:#BF8256;}
	.st2{fill:#915E3A;}
	.st3{fill:none;stroke:#45413C;stroke-linecap:round;stroke-linejoin:round;stroke-miterlimit:10;}
	.st4{fill:#DEA47A;}
	.st5{fill:#DAEDF7;stroke:#45413C;stroke-linecap:round;stroke-linejoin:round;stroke-miterlimit:10;}
	.st6{fill:#BF8256;stroke:#45413C;stroke-linecap:round;stroke-linejoin:round;stroke-miterlimit:10;}
	.st7{fill:#FF6242;}
	.st8{fill:#FF866E;}
	.st9{fill:#DEBB7E;}
	.st10{fill:#B89558;}
	.st11{fill:#656769;}
	.st12{fill:#525252;}
	.st13{fill:#E04122;}
	.st14{fill:#FFFFFF;}
	.st15{fill:#F0F0F0;}
	.st16{fill:#00B8F0;}
	.st17{fill:#4ACFFF;}
	.st18{fill:#C0DCEB;}
	.st19{fill:#8CA4B8;}
	.st20{fill:#FF6242;stroke:#45413C;stroke-linecap:round;stroke-linejoin:round;stroke-miterlimit:10;}
	.st21{fill:#87898C;}
	.st22{fill:#E0E0E0;}
	.st23{fill:#E8F4FA;stroke:#45413C;stroke-linecap:round;stroke-linejoin:round;stroke-miterlimit:10;}
	.st24{fill:#656769;stroke:#45413C;stroke-linecap:round;stroke-linejoin:round;stroke-miterlimit:10;}
	.st25{fill:#DAEDF7;}
	.st26{fill:#E8F4FA;}
	.st27{fill:#ADC4D9;stroke:#45413C;stroke-linecap:round;stroke-linejoin:round;stroke-miterlimit:10;}
	.st28{fill:#87898C;stroke:#45413C;stroke-linecap:round;stroke-linejoin:round;stroke-miterlimit:10;}
	.st29{fill:#BDBEC0;}
	.st30{fill:#FFFFFF;stroke:#45413C;stroke-linecap:round;stroke-linejoin:round;stroke-miterlimit:10;}
	.st31{fill:#ADC4D9;}
	.st32{fill:none;stroke:#00AED9;stroke-linecap:round;stroke-linejoin:round;stroke-miterlimit:10;}
	.st33{fill:#FFFACF;}
	.st34{fill:#FFE500;}
	.st35{fill:#915E3A;stroke:#45413C;stroke-linecap:round;stroke-linejoin:round;stroke-miterlimit:10;}
	.st36{fill:#FFAA54;}
	.st37{fill:#627B8C;stroke:#45413C;stroke-linecap:round;stroke-linejoin:round;stroke-miterlimit:10;}
	.st38{fill:#FFFEF2;}
	.st39{fill:#FFFCE5;stroke:#45413C;stroke-linecap:round;stroke-linejoin:round;stroke-miterlimit:10;}
	.st40{fill:#00F5BC;}
	.st41{fill:#FFFCE5;}
	.st42{fill:#FFFEF2;stroke:#45413C;stroke-linecap:round;stroke-linejoin:round;stroke-miterlimit:10;}
	.st43{fill:#8CFFE4;}
	.st44{fill:#FFF5E3;}
	.st45{fill:#F7E5C6;}
	.st46{fill:#F7E5C6;stroke:#45413C;stroke-linecap:round;stroke-linejoin:round;stroke-miterlimit:10;}
	.st47{fill:#F0D5A8;}
	.st48{fill:#FF87AF;stroke:#45413C;stroke-linecap:round;stroke-linejoin:round;stroke-miterlimit:10;}
	.st49{fill:#45413C;}
	.st50{fill:#BDBEC0;stroke:#45413C;stroke-linecap:round;stroke-linejoin:round;stroke-miterlimit:10;}
	.st51{fill:#E0E0E0;stroke:#45413C;stroke-linecap:round;stroke-linejoin:round;stroke-miterlimit:10;}
	.st52{fill:#DEBB7E;stroke:#45413C;stroke-linecap:round;stroke-linejoin:round;stroke-miterlimit:10;}
	.st53{fill:#F5EBFF;stroke:#45413C;stroke-linecap:round;stroke-linejoin:round;stroke-miterlimit:10;}
	.st54{fill:#BF8DF2;stroke:#45413C;stroke-linecap:round;stroke-linejoin:round;stroke-miterlimit:10;}
	.st55{fill:#E4FFD1;stroke:#45413C;stroke-linecap:round;stroke-linejoin:round;stroke-miterlimit:10;}
	.st56{fill:#F0FFE5;}
	.st57{fill:#C8FFA1;stroke:#45413C;stroke-linecap:round;stroke-linejoin:round;stroke-miterlimit:10;}
	.st58{fill:#6DD627;stroke:#45413C;stroke-linecap:round;stroke-linejoin:round;stroke-miterlimit:10;}
	.st59{fill:#E5FEFF;}
	.st60{fill:#FFAA54;stroke:#45413C;stroke-linecap:round;stroke-linejoin:round;stroke-miterlimit:10;}
	.st61{fill:#9CEB60;stroke:#45413C;stroke-linecap:round;stroke-linejoin:round;stroke-miterlimit:10;}
	.st62{fill:#FFF48C;}
	.st63{fill:#00B8F0;stroke:#45413C;stroke-linecap:round;stroke-linejoin:round;stroke-miterlimit:10;}
	.st64{fill:none;stroke:#4F4B45;stroke-linejoin:round;stroke-miterlimit:10;}
	.st65{fill:#FFFFFF;stroke:#4F4B45;stroke-linejoin:round;stroke-miterlimit:10;}
	.st66{fill:#FFF5E3;stroke:#4F4B45;stroke-linejoin:round;stroke-miterlimit:10;}
	.st67{fill:#F7E5C6;stroke:#4F4B45;stroke-linejoin:round;stroke-miterlimit:10;}
	.st68{fill:#6DD627;}
	.st69{fill:#EBCB00;}
	.st70{fill:#46B000;}
	.st71{fill:none;stroke:#E0E0E0;stroke-linecap:round;stroke-linejoin:round;stroke-miterlimit:10;}
	.st72{fill:#9CEB60;}
	.st73{fill:#FFCC99;}
	.st74{fill:#BF8DF2;}
	.st75{fill:#9F5AE5;}
	.st76{fill:#DABFF5;}
	.st77{fill:#F0F0F0;stroke:#45413C;stroke-linecap:round;stroke-linejoin:round;stroke-miterlimit:10;}
	.st78{fill:#E5F8FF;}
	.st79{fill:#B8ECFF;}
	.st80{fill:#D9FDFF;}
	.st81{fill:#C0DCEB;stroke:#45413C;stroke-linecap:round;stroke-linejoin:round;stroke-miterlimit:10;}
	.st82{fill:#46B000;stroke:#45413C;stroke-linecap:round;stroke-linejoin:round;stroke-miterlimit:10;}
	.st83{fill:none;stroke:#FFFFFF;stroke-miterlimit:10;}
	.st84{fill:none;stroke:#FFFFFF;stroke-linecap:round;stroke-linejoin:round;stroke-miterlimit:10;}
	.st85{fill:#FFE500;stroke:#45413C;stroke-linecap:round;stroke-linejoin:round;stroke-miterlimit:10;}
	.st86{fill:#80DDFF;stroke:#45413C;stroke-linecap:round;stroke-linejoin:round;stroke-miterlimit:10;}
	.st87{fill:#FFFFFF;stroke:#45413C;stroke-linejoin:round;stroke-miterlimit:10;}
	.st88{fill:#009FD9;stroke:#45413C;stroke-linecap:round;stroke-linejoin:round;stroke-miterlimit:10;}
	.st89{fill:#E04122;stroke:#45413C;stroke-linecap:round;stroke-linejoin:round;stroke-miterlimit:10;}
	.st90{fill:#009FD9;}
	.st91{fill:#FFFFFF;stroke:#45413C;stroke-miterlimit:10;}
	.st92{fill:#009FD9;stroke:#45413C;stroke-miterlimit:10;}
	.st93{fill:#FF8A14;stroke:#45413C;stroke-linecap:round;stroke-linejoin:round;stroke-miterlimit:10;}
	.st94{fill:none;stroke:#009FD9;stroke-linecap:round;stroke-linejoin:round;stroke-miterlimit:10;}
	.st95{fill:#525252;stroke:#45413C;stroke-linecap:round;stroke-linejoin:round;stroke-miterlimit:10;}
	.st96{fill:none;stroke:#46B000;stroke-linecap:round;stroke-linejoin:round;stroke-miterlimit:10;}
	.st97{fill:none;stroke:#E04122;stroke-linecap:round;stroke-linejoin:round;stroke-miterlimit:10;}
	.st98{fill:#6DD627;stroke:#45413C;stroke-miterlimit:10;}
	.st99{fill:none;stroke:#45413C;stroke-linejoin:round;stroke-miterlimit:10;}
	.st100{fill:#46B000;stroke:#45413C;stroke-miterlimit:10;}
	.st101{fill:#00DFEB;}
	.st102{fill:#00AD85;}
	.st103{fill:#E04122;stroke:#45413C;stroke-miterlimit:10;}
</style>
<g id="XMLID_17617_">
	<ellipse id="XMLID_17626_" class="st0" cx="25" cy="44.2" rx="12.4" ry="1.6"/>
	<path id="XMLID_17625_" class="st18" d="M44.1,9c-0.1-0.6-0.9-0.9-1.4-0.4L39.4,12c-0.4,0.4-0.9,0.5-1.4,0.5l-2.2-0.3
		c-0.7-0.1-1.3-0.7-1.4-1.4l-0.3-2.2c-0.1-0.5,0.1-1,0.5-1.4l3.3-3.3c0.5-0.5,0.2-1.2-0.4-1.4c-2.8-0.6-5.9,0.1-8.1,2.4
		c-2.6,2.6-3.2,6.4-1.9,9.6L15.8,26.1c-2.8-1.2-6.2-0.8-8.7,1.1c-2.9,2.2-4,5.7-3.3,8.9c0.1,0.6,0.9,0.9,1.4,0.4l3.3-3.3
		c0.4-0.4,0.9-0.5,1.4-0.5l2.2,0.3c0.7,0.1,1.3,0.7,1.4,1.4l0.3,2.2c0.1,0.5-0.1,1-0.5,1.4l-3.3,3.3c-0.5,0.5-0.2,1.2,0.4,1.4
		c2.8,0.6,5.9-0.1,8.1-2.4c2.6-2.6,3.2-6.4,1.9-9.6L32.2,19c2.8,1.2,6.2,0.8,8.7-1.1C43.7,15.7,44.8,12.2,44.1,9z"/>
	<g id="XMLID_17619_">
		<path id="XMLID_17624_" class="st25" d="M29.8,7.8c1.8-1.8,4.3-2.7,6.7-2.5l1.4-1.4c0.5-0.5,0.2-1.2-0.4-1.4
			c-2.8-0.6-5.9,0.1-8.1,2.4c-2.4,2.4-3.1,5.8-2.1,8.9C27.3,11.5,28.2,9.4,29.8,7.8z"/>
		<path id="XMLID_17623_" class="st25" d="M38,12.4l-2.2-0.3c-0.6-0.1-1.1-0.5-1.3-1c0,0.1,0,0.3,0,0.4l0.3,2.2
			c0.1,0.7,0.7,1.3,1.4,1.4l2.2,0.3c0.5,0.1,1-0.1,1.4-0.5l3.3-3.3c0.3-0.3,0.9-0.3,1.2,0c0.1-0.9,0-1.7-0.2-2.6
			c-0.1-0.6-0.9-0.9-1.4-0.4L39.4,12C39,12.3,38.5,12.5,38,12.4z"/>
		<path id="XMLID_17622_" class="st25" d="M21.2,34.5c0-0.3,0-0.7,0-1l-0.3,0.3C21,33.9,21.1,34.2,21.2,34.5z"/>
		<path id="XMLID_17621_" class="st25" d="M11.9,42.9l1.9-1.9c0.4-0.4,0.5-0.9,0.5-1.4L14,37.4c0-0.1-0.1-0.3-0.1-0.4
			c0,0.4-0.2,0.7-0.5,1l-3.3,3.3c-0.5,0.5-0.2,1.2,0.4,1.4C11,42.8,11.4,42.8,11.9,42.9z"/>
		<path id="XMLID_17620_" class="st25" d="M4.1,36.4c0.2-2.4,1.3-4.7,3.5-6.3c2.5-1.9,5.9-2.3,8.7-1.1l11.7-11.7
			c-0.4-0.9-0.6-1.8-0.7-2.7L15.8,26.1c-2.8-1.2-6.2-0.8-8.7,1.1c-2.9,2.2-4,5.7-3.3,8.9C3.9,36.2,4,36.3,4.1,36.4z"/>
	</g>
	<path id="XMLID_17618_" class="st3" d="M44.1,9c-0.1-0.6-0.9-0.9-1.4-0.4L39.4,12c-0.4,0.4-0.9,0.5-1.4,0.5l-2.2-0.3
		c-0.7-0.1-1.3-0.7-1.4-1.4l-0.3-2.2c-0.1-0.5,0.1-1,0.5-1.4l3.3-3.3c0.5-0.5,0.2-1.2-0.4-1.4c-2.8-0.6-5.9,0.1-8.1,2.4
		c-2.6,2.6-3.2,6.4-1.9,9.6L15.8,26.1c-2.8-1.2-6.2-0.8-8.7,1.1c-2.9,2.2-4,5.7-3.3,8.9c0.1,0.6,0.9,0.9,1.4,0.4l3.3-3.3
		c0.4-0.4,0.9-0.5,1.4-0.5l2.2,0.3c0.7,0.1,1.3,0.7,1.4,1.4l0.3,2.2c0.1,0.5-0.1,1-0.5,1.4l-3.3,3.3c-0.5,0.5-0.2,1.2,0.4,1.4
		c2.8,0.6,5.9-0.1,8.1-2.4c2.6-2.6,3.2-6.4,1.9-9.6L32.2,19c2.8,1.2,6.2,0.8,8.7-1.1C43.7,15.7,44.8,12.2,44.1,9z"/>
</g>
</svg>
